<svg width="170" height="46" viewBox="0 0 170 46" fill="none" xmlns="http://www.w3.org/2000/svg">
<g clip-path="url(#clip0_12_8652)">
<path d="M2.58789 25.6894C3.47929 13.3332 13.6182 3.58136 26 3.58136C38.3817 3.58136 48.5264 13.3332 49.412 25.6894" stroke="white" stroke-width="5" stroke-linecap="round" stroke-linejoin="round"/>
<path d="M41.0099 24.0178C37.2373 27.1728 31.9119 29.1462 26.0057 29.1462C20.0995 29.1462 14.7683 27.1786 11.0015 24.0178" stroke="#4157C8" stroke-width="5" stroke-linecap="round" stroke-linejoin="round"/>
<path d="M25.9999 23.7586C29.6366 23.7586 32.5847 20.7614 32.5847 17.0642C32.5847 13.367 29.6366 10.3699 25.9999 10.3699C22.3632 10.3699 19.415 13.367 19.415 17.0642C19.415 20.7614 22.3632 23.7586 25.9999 23.7586Z" fill="white"/>
<path d="M22.3078 35.4872L21.3474 41.4186" stroke="#788CF2" stroke-width="5" stroke-linecap="round" stroke-linejoin="round"/>
<path d="M15.24 33.8064L13.2961 39.4797" stroke="#788CF2" stroke-width="5" stroke-linecap="round" stroke-linejoin="round"/>
<path d="M8.40776 30.5137L5.09521 35.4872" stroke="#788CF2" stroke-width="5" stroke-linecap="round" stroke-linejoin="round"/>
<path d="M29.6978 35.4872L30.6582 41.4186" stroke="#788CF2" stroke-width="5" stroke-linecap="round" stroke-linejoin="round"/>
<path d="M36.7656 33.8064L38.7094 39.4797" stroke="#788CF2" stroke-width="5" stroke-linecap="round" stroke-linejoin="round"/>
<path d="M43.5977 30.5137L46.9102 35.4872" stroke="#788CF2" stroke-width="5" stroke-linecap="round" stroke-linejoin="round"/>
</g>
<path d="M64.8352 12.3324V9.36364H85.5625V12.3324H76.8722V37H73.5256V12.3324H64.8352ZM90.7275 37V9.36364H100.066C102.225 9.36364 103.997 9.73248 105.382 10.4702C106.768 11.1989 107.793 12.2019 108.459 13.4794C109.125 14.7569 109.458 16.2098 109.458 17.8381C109.458 19.4664 109.125 20.9103 108.459 22.1697C107.793 23.4292 106.772 24.4188 105.396 25.1385C104.019 25.8492 102.261 26.2045 100.119 26.2045H92.5627V23.1818H100.012C101.487 23.1818 102.674 22.9659 103.574 22.5341C104.483 22.1023 105.139 21.4905 105.544 20.6989C105.958 19.8982 106.165 18.9446 106.165 17.8381C106.165 16.7315 105.958 15.7644 105.544 14.9368C105.13 14.1091 104.469 13.4704 103.561 13.0206C102.652 12.5618 101.451 12.3324 99.9576 12.3324H94.074V37H90.7275ZM103.736 24.5852L110.537 37H106.651L99.9576 24.5852H103.736ZM118.381 9.36364V37H115.034V9.36364H118.381ZM125.091 37V9.36364H134.753C136.678 9.36364 138.266 9.6965 139.516 10.3622C140.767 11.0189 141.698 11.9051 142.309 13.0206C142.921 14.1271 143.227 15.3551 143.227 16.7045C143.227 17.892 143.016 18.8726 142.593 19.6463C142.179 20.42 141.63 21.0317 140.947 21.4815C140.272 21.9313 139.539 22.2642 138.747 22.4801V22.75C139.593 22.804 140.443 23.1009 141.297 23.6406C142.152 24.1804 142.867 24.9541 143.443 25.9616C144.019 26.9692 144.307 28.2017 144.307 29.6591C144.307 31.0445 143.992 32.2905 143.362 33.397C142.732 34.5036 141.738 35.3807 140.38 36.0284C139.021 36.6761 137.254 37 135.077 37H125.091ZM128.437 34.0312H135.077C137.263 34.0312 138.814 33.6084 139.732 32.7628C140.659 31.9081 141.122 30.8736 141.122 29.6591C141.122 28.7235 140.884 27.8598 140.407 27.0682C139.93 26.2675 139.251 25.6288 138.369 25.152C137.488 24.6662 136.444 24.4233 135.238 24.4233H128.437V34.0312ZM128.437 21.5085H134.645C135.652 21.5085 136.561 21.3106 137.371 20.9148C138.189 20.5189 138.837 19.9612 139.314 19.2415C139.8 18.5218 140.042 17.6761 140.042 16.7045C140.042 15.4901 139.62 14.46 138.774 13.6143C137.928 12.7597 136.588 12.3324 134.753 12.3324H128.437V21.5085ZM149.806 37V9.36364H166.485V12.3324H153.152V21.6705H165.621V24.6392H153.152V34.0312H166.7V37H149.806Z" fill="white"/>
<defs>
<clipPath id="clip0_12_8652">
<rect width="52" height="43" fill="white" transform="translate(0 1)"/>
</clipPath>
</defs>
</svg>
